<svg id="Layer_1" xmlns="http://www.w3.org/2000/svg" viewBox="0 0 498.24 466.64"><defs><style>.cls-1{fill:#165c74;fill-rule:evenodd;}</style></defs><title>logo [Converted]</title><path class="cls-1" d="M554.74,251.66c-1-5.87-.86-11-2.4-16.08-9.53-31.6-29-53.49-58.08-65.52-9.39-3.88-28.31-9.79-43.44-7.2-9.75,1.67-18.48,2.18-26.4,5.28-31.31,12.24-52.22,34.53-62.16,68.16-1.85,6.26-1.16,12.64-2.4,19.92-1.8,10.58.79,23.52,3.36,31.68a106,106,0,0,0,16.08,31.92c5,6.65,11.07,12.45,15.6,19.68,10.27,16.39,14.68,35.6,20.64,56.88l5.52,21.84c7.62-.07,23-2,26.64,2.4,3.74,4.53,1.8,26.16,1.8,26.16v68.76c0,11.62,1.44,25.52-.72,35.92-7.53,36.33-38.69,71.55-86.2,58.18a67.65,67.65,0,0,1-46.21-45c-3.09-10.12-2.87-23.14-2.87-36.63V275.84c0-10,.66-20.84-1.2-29.3-4.93-22.41-19.6-39.7-38.66-48l-12.25-4.33c-2.7-.73-5.5-.49-7.44-1.92-3.14-2.31-4.15-8.9-6.24-12.24-6.44-10.28-21.19-21.05-40.11-16.81a38.82,38.82,0,0,0-24.49,17.53l-4.8,9.84c-2.33,2.32-33.46,3.49-40.1,2.16-7.82-1.56-8.1-9.53-12-14.89-6.84-9.37-16.47-14.69-32.32-15.1L82.8,164.64c-6.75,2.64-13,6.93-17.11,12.26-12.28,16-9.28,40.92,5,52.35a41.89,41.89,0,0,0,19.93,8.89c6.76,1.14,14.84-3,19.93-.48,3.81,1.89,6.23,8.32,8.65,11.76l18.25,26.66c2.09,3.11,7.85,7.84,7,13.2-.82,5-5.37,9.1-7.92,12.73q-9.5,13.92-19,27.85c-2.48,3.72-5.54,11-9.61,13-4.34,2.09-15.55-.95-21.61.72-15.94,4.41-34,22.34-27.85,45.87A38.29,38.29,0,0,0,89,418c6.83,1.32,17.22-2.42,21.61-.24,4,2,6.93,9.08,9.37,12.73l18.49,27.13c2,3,5.21,5.77,6,9.85,1.06,5.46-5.27,10.83-7.44,13.92l-20.17,29.54c-2.47,3.51-5,10.12-8.89,12-4.49,2.15-11.46-1-17.29,0-11.48,1.93-20.36,7.52-25.93,15.36-17,24-1.45,52.27,20.89,59.08,17.79,5.42,33.83-4.91,40.58-14.17l6.72-12.73c2.32-2.3,33.5-3.5,40.11-2.16,7.67,1.56,8.21,9.56,12,14.89,5.92,8.3,18.69,17.87,35.06,15.13,12.09-2,20.83-7.6,26.65-15.85,2.65-3.75,3.84-11,7.93-13.21,2.71-1.48,7.76-1,11.77-1,7.85,0,26.73-1.54,32.41.72,3.78,1.5,4.62,6.86,6.25,10.57,3.33,7.6,8.3,14.29,13.2,20.41,13.93,17.35,47.87,35.19,81.89,26.65A86.73,86.73,0,0,0,429,613.45c16.34-11.58,28.38-29.23,34.34-51.14,2.54-9.35,2.16-20.94,2.16-32.66V440.78s-1.51-14.74.68-18.72c3.25-5.91,18.61-3.92,27.6-3.84,5.72-24.7,11.09-52.51,22.56-72,13.86-23.56,30.42-35.72,37.44-67.44C555.46,271.19,556.12,260,554.74,251.66Zm-458.4-28.8c-15.22,2.2-27.22-16.52-21.36-31a23.09,23.09,0,0,1,12.24-12l6-1.44C124.41,178,125.31,218.68,96.34,222.86ZM98,402.62C81.39,405.74,69,386.75,75,371.9a22.82,22.82,0,0,1,12.24-12L93,358.46C123.92,358,125.23,397.51,98,402.62Zm-.24,180C81.36,585.7,69,566.62,75,551.9A22.94,22.94,0,0,1,86.5,540.14l8.16-1.92C123.67,538.79,124.93,577.53,97.78,582.62ZM195,191.9a22.89,22.89,0,0,1,12.24-12l6-1.44c31.17-.47,32.06,40.22,3.12,44.4C201.07,225.06,189.1,206.38,195,191.9Zm-4,58.56c2.45-3.68,5.37-10.74,9.36-12.72,4.75-2.35,10.6,1.64,16.56.72,7.19-1.11,12.45-2.05,17.52-5A39.19,39.19,0,0,0,245.9,223.1c4.1-5.76,3.46-9.41,10.32-13,8.53.17,15,5.07,20.16,8.88,26.29,19.3,21.12,50,21.12,93.84V351c0,5.47,1,13.26-.72,17.52-1,2.47-3.82,3.73-6.72,4.32-5,1-31.95.6-35.28-.72-3.93-1.56-4.66-7.31-6.72-10.8a40.24,40.24,0,0,0-11-12,40.91,40.91,0,0,0-17-6.48c-6.13-1-12.53,2-17,0-3.92-1.72-6.78-8.75-9.12-12.24L172.7,300.14c-2.4-3.59-7.84-8.54-5.76-14.64ZM218,402.62c-16.66,3.13-29.06-15.85-23-30.72a22.91,22.91,0,0,1,11.52-11.76l6.48-1.68C243.91,358,245.21,397.51,218,402.62ZM141.94,254.3c-2.81-4-17.72-23.21-17.28-27.6.36-3.63,3.13-5.93,4.56-8.64,3-5.72,1.87-6.58,7.92-9.6,7.89-.07,36.55-1.34,40.32,1.44,2.35,1.73,2.92,5.47,4.32,8.16s4.17,5.06,4.56,8.64c.47,4.35-14.09,22.86-16.8,26.88-2.42,3.6-7.12,13-10.8,14.64C150,272.17,145.13,258.84,141.94,254.3ZM123.22,351c.9-4.77,5.05-8.41,7.44-12,5.81-8.72,15.07-26.36,24-31,8.38.2,11.47,10.42,15.12,15.6l13.44,19.68c1.55,2.19,5.24,5.3,4.56,9.36s-3.93,6.7-5.76,9.84-2.22,7.71-5.52,9.36c-5.48,2.75-23.34,1-31.2,1-3.75,0-8.27.43-10.8-1-3.61-2-4.35-7.54-6.48-11C126.48,358.32,122.36,355.58,123.22,351Zm18.24,82.56c-2.67-4-17.32-22.6-16.8-26.88.46-3.85,3.32-6.18,4.8-9.12,3.55-7,1.33-5.81,8.64-9.36,8.87-.07,36-1.87,40.08,2.16l3.6,7.68c1.44,2.68,4.15,5.08,4.56,8.64.49,4.26-13.7,22.22-16.32,26.16-2.38,3.58-7.68,13.8-11.28,15.36C149.85,452.06,144.67,438.33,141.46,433.58Zm46.32,99.12c-.68,3.94-3.76,6.34-5.52,9.36-2,3.45-2.49,8.64-6.48,10.08-5.53,2-22.95.48-30.24.48-3.58,0-8.53.59-11-.72-3.58-1.88-4.39-7.63-6.48-11-1.54-2.51-5.63-5.36-4.8-9.84.88-4.78,5.05-8.43,7.44-12,5.68-8.5,15.17-26.48,23.76-31,8.35,0,10.88,9.16,14.4,14.16l13.92,20.4C184.4,525,188.53,528.38,187.78,532.7Zm30,49.92c-16.55,3.11-28.63-15.94-22.8-30.72a22.48,22.48,0,0,1,12.72-12.24l7-1.44C243.76,539.18,244.88,577.53,217.78,582.62Zm73.24-30c-4.24.88-34.59.39-36.72-.72-3.52-1.84-4.23-7.17-6.24-10.56a38.79,38.79,0,0,0-11-12,41.6,41.6,0,0,0-16.8-6.48c-5.9-1-12.47,2-17,0-4.12-1.78-6.92-8.61-9.36-12.24L172.7,480.14c-2.4-3.59-7.83-8.57-5.76-14.64l24.48-35.76c2.38-3.57,5.25-10.6,9.36-12.24,5.18-2.06,12.26,1.86,19.2.72a42.63,42.63,0,0,0,16.32-6,38.58,38.58,0,0,0,11.76-12.48l4.56-9.36c1.33-1.33,3.47-1.25,5.28-2.16,8.58-.06,33.48-1.79,37.44,2.16,4.13,4.12,2.16,19.1,2.16,26.88V535.1C297.5,543.88,298.35,551.1,291,552.62Zm194.6-168c-1.24,4.82-1.65,13.17-4.8,16.32-3.35,3.35-13.18,2.16-19.68,2.16-7.83,0-22.95,2-27.12-2.16-2.59-2.57-2.75-8.77-3.84-12.72-1.46-5.28-7.68-21.91-5-26.4,1.25-2.12,3.2-2.25,5.52-3.36h41.76c5.54,0,13.25-.9,16.08,1.92C492.94,364.84,487.16,378.7,485.62,384.66Zm49.92-98.8c-4,12.57-11.09,21.3-18.24,30.48-3,3.9-15.4,24.43-18.24,25.44-4.9,1.74-13.32.72-19.44.72h-41c-6.87,0-17,1.39-22.56-.72-4.19-1.6-10.58-15.56-13.68-19.68-4.67-6.21-10.44-11.53-14.64-18.24-10.47-16.71-16.17-44.9-8.64-68.88,7.64-24.34,25.79-42.49,48.72-51.6l16.32-4.32,7.68-1c10.7,0,19.38.6,27.6,2.88C517.88,191.67,551.85,234.2,535.54,285.86Z" transform="translate(-57.25 -162.22)"/></svg>